<svg width="39" height="33" viewBox="0 0 39 33" fill="none" xmlns="http://www.w3.org/2000/svg">
<g opacity="0.3">
<ellipse cx="18.6184" cy="14.3212" rx="13.6877" ry="13.7297" fill="#9FA324"/>
<ellipse cx="2.87738" cy="2.651" rx="2.05316" ry="2.05945" fill="#9FA324"/>
</g>
<path d="M20.9819 21.1054C20.9819 22.5814 22.1112 23.7713 23.5142 23.7713H26.3772C27.5977 23.7713 28.59 22.7301 28.59 21.4487C28.59 20.0528 27.9855 19.5608 27.0844 19.2405L22.4876 17.6387C21.5865 17.3183 20.9819 16.8264 20.9819 15.4305C20.9819 14.1491 21.9743 13.1079 23.1948 13.1079H26.0578C27.4608 13.1079 28.59 14.2978 28.59 15.7738" stroke="#9FA324" stroke-width="2" stroke-linecap="round" stroke-linejoin="round"/>
<path d="M24.7778 11.575V25.3046" stroke="#9FA324" stroke-width="2" stroke-linecap="round" stroke-linejoin="round"/>
<path d="M24.778 29.8813C31.0776 29.8813 36.1845 24.7588 36.1845 18.4399C36.1845 12.121 31.0776 6.99854 24.778 6.99854C18.4784 6.99854 13.3716 12.121 13.3716 18.4399C13.3716 24.7588 18.4784 29.8813 24.778 29.8813Z" stroke="#9FA324" stroke-width="2" stroke-linecap="round" stroke-linejoin="round"/>
</svg>
